<svg width="287" height="103" viewBox="0 0 287 103" fill="none" xmlns="http://www.w3.org/2000/svg">
<path d="M109 51.5C109 79.3295 84.8863 102 55 102C25.1137 102 1 79.3295 1 51.5C1 23.6705 25.1137 1 55 1C84.8863 1 109 23.6705 109 51.5Z" stroke="#0D0A36" stroke-width="2"/>
<path d="M48 47.5C48 55.4502 41.1202 62 32.5 62C23.8798 62 17 55.4502 17 47.5C17 39.5498 23.8798 33 32.5 33C41.1202 33 48 39.5498 48 47.5Z" stroke="#1400FF" stroke-width="2"/>
<path d="M98 47.5C98 55.4502 91.1202 62 82.5 62C73.8798 62 67 55.4502 67 47.5C67 39.5498 73.8798 33 82.5 33C91.1202 33 98 39.5498 98 47.5Z" fill="#1400FF" stroke="#1400FF" stroke-width="2"/>
<path d="M138.88 65.28C135.6 65.28 132.907 64.5067 130.8 62.96C128.693 61.3867 127.56 59.1467 127.4 56.24H135.76C135.84 57.2267 136.133 57.9467 136.64 58.4C137.147 58.8533 137.8 59.08 138.6 59.08C139.32 59.08 139.907 58.9067 140.36 58.56C140.84 58.1867 141.08 57.68 141.08 57.04C141.08 56.2133 140.693 55.5733 139.92 55.12C139.147 54.6667 137.893 54.16 136.16 53.6C134.32 52.9867 132.827 52.4 131.68 51.84C130.56 51.2533 129.573 50.4133 128.72 49.32C127.893 48.2 127.48 46.7467 127.48 44.96C127.48 43.1467 127.933 41.6 128.84 40.32C129.747 39.0133 131 38.0267 132.6 37.36C134.2 36.6933 136.013 36.36 138.04 36.36C141.32 36.36 143.933 37.1333 145.88 38.68C147.853 40.2 148.907 42.3467 149.04 45.12H140.52C140.493 44.2667 140.227 43.6267 139.72 43.2C139.24 42.7733 138.613 42.56 137.84 42.56C137.253 42.56 136.773 42.7333 136.4 43.08C136.027 43.4267 135.84 43.92 135.84 44.56C135.84 45.0933 136.04 45.56 136.44 45.96C136.867 46.3333 137.387 46.6667 138 46.96C138.613 47.2267 139.52 47.5733 140.72 48C142.507 48.6133 143.973 49.2267 145.12 49.84C146.293 50.4267 147.293 51.2667 148.12 52.36C148.973 53.4267 149.4 54.7867 149.4 56.44C149.4 58.12 148.973 59.6267 148.12 60.96C147.293 62.2933 146.08 63.3467 144.48 64.12C142.907 64.8933 141.04 65.28 138.88 65.28ZM174.485 53.52C174.485 54.1333 174.445 54.7467 174.365 55.36H159.525C159.605 56.5867 159.938 57.5067 160.525 58.12C161.138 58.7067 161.911 59 162.845 59C164.151 59 165.085 58.4133 165.645 57.24H174.005C173.658 58.7867 172.978 60.1733 171.965 61.4C170.978 62.6 169.725 63.5467 168.205 64.24C166.685 64.9333 165.005 65.28 163.165 65.28C160.951 65.28 158.978 64.8133 157.245 63.88C155.538 62.9467 154.191 61.6133 153.205 59.88C152.245 58.1467 151.765 56.1067 151.765 53.76C151.765 51.4133 152.245 49.3867 153.205 47.68C154.165 45.9467 155.498 44.6133 157.205 43.68C158.938 42.7467 160.925 42.28 163.165 42.28C165.378 42.28 167.338 42.7333 169.045 43.64C170.751 44.5467 172.085 45.8533 173.045 47.56C174.005 49.24 174.485 51.2267 174.485 53.52ZM166.485 51.56C166.485 50.6 166.165 49.8533 165.525 49.32C164.885 48.76 164.085 48.48 163.125 48.48C162.165 48.48 161.378 48.7467 160.765 49.28C160.151 49.7867 159.751 50.5467 159.565 51.56H166.485ZM185.533 35.4V65H177.693V35.4H185.533ZM202.118 49.08H198.598V65H190.718V49.08H188.278V42.56H190.718V42.36C190.718 39.48 191.558 37.28 193.238 35.76C194.944 34.2133 197.384 33.44 200.558 33.44C201.198 33.44 201.691 33.4533 202.038 33.48V40.16C201.824 40.1333 201.531 40.12 201.158 40.12C200.304 40.12 199.678 40.32 199.278 40.72C198.878 41.0933 198.651 41.7067 198.598 42.56H202.118V49.08ZM212.76 45.68C213.373 44.6133 214.24 43.7867 215.36 43.2C216.48 42.5867 217.8 42.28 219.32 42.28C221.106 42.28 222.72 42.7467 224.16 43.68C225.626 44.6133 226.773 45.9467 227.6 47.68C228.453 49.4133 228.88 51.44 228.88 53.76C228.88 56.08 228.453 58.12 227.6 59.88C226.773 61.6133 225.626 62.9467 224.16 63.88C222.72 64.8133 221.106 65.28 219.32 65.28C217.8 65.28 216.48 64.9867 215.36 64.4C214.24 63.7867 213.373 62.9467 212.76 61.88V65H204.92V35.4H212.76V45.68ZM220.92 53.76C220.92 52.2933 220.52 51.16 219.72 50.36C218.946 49.5333 217.986 49.12 216.84 49.12C215.693 49.12 214.72 49.5333 213.92 50.36C213.146 51.1867 212.76 52.32 212.76 53.76C212.76 55.2267 213.146 56.3733 213.92 57.2C214.72 58.0267 215.693 58.44 216.84 58.44C217.986 58.44 218.946 58.0267 219.72 57.2C220.52 56.3467 220.92 55.2 220.92 53.76ZM256.267 42.56L242.027 75.68H233.507L238.867 64.04L229.667 42.56H238.387L243.107 55.28L247.667 42.56H256.267ZM271.558 58.32V65H268.158C262.425 65 259.558 62.16 259.558 56.48V49.08H256.798V42.56H259.558V37.12H267.438V42.56H271.518V49.08H267.438V56.6C267.438 57.2133 267.571 57.6533 267.838 57.92C268.131 58.1867 268.611 58.32 269.278 58.32H271.558Z" fill="black"/>
</svg>
